<?xml version="1.0" encoding="UTF-8" standalone="no"?>
<!-- Created with Inkscape (http://www.inkscape.org/) -->

<svg
   xmlns:dc="http://purl.org/dc/elements/1.1/"
   xmlns:cc="http://creativecommons.org/ns#"
   xmlns:rdf="http://www.w3.org/1999/02/22-rdf-syntax-ns#"
   xmlns:svg="http://www.w3.org/2000/svg"
   xmlns="http://www.w3.org/2000/svg"
   xmlns:sodipodi="http://sodipodi.sourceforge.net/DTD/sodipodi-0.dtd"
   xmlns:inkscape="http://www.inkscape.org/namespaces/inkscape"
   width="20"
   height="14"
   id="svg2"
   version="1.1"
   inkscape:version="0.48.2 r9819"
   sodipodi:docname="New document 1">
  <defs
     id="defs4" />
  <sodipodi:namedview
     id="base"
     pagecolor="#ffffff"
     bordercolor="#666666"
     borderopacity="1.0"
     inkscape:pageopacity="0.0"
     inkscape:pageshadow="2"
     inkscape:zoom="7.9195959"
     inkscape:cx="-9.6237439"
     inkscape:cy="-5.6308092"
     inkscape:document-units="px"
     inkscape:current-layer="layer1"
     showgrid="false"
     inkscape:window-width="1366"
     inkscape:window-height="745"
     inkscape:window-x="-8"
     inkscape:window-y="-8"
     inkscape:window-maximized="1" />
  <metadata
     id="metadata7">
    <rdf:RDF>
      <cc:Work
         rdf:about="">
        <dc:format>image/svg+xml</dc:format>
        <dc:type
           rdf:resource="http://purl.org/dc/dcmitype/StillImage" />
        <dc:title></dc:title>
      </cc:Work>
    </rdf:RDF>
  </metadata>
  <g
     inkscape:label="Layer 1"
     inkscape:groupmode="layer"
     id="layer1"
     transform="translate(0,-1038.3622)">
    <path
       sodipodi:type="arc"
       style="fill:#000000;fill-opacity:1;fill-rule:nonzero;stroke:#000400;stroke-width:3.25013350999999990;stroke-linecap:butt;stroke-linejoin:miter;stroke-miterlimit:4;stroke-opacity:1;stroke-dasharray:none;stroke-dashoffset:0"
       id="path2985"
       sodipodi:cx="10.267858"
       sodipodi:cy="7.2142859"
       sodipodi:rx="5.7142859"
       sodipodi:ry="4.4642859"
       d="m 15.982143,7.2142859 a 5.7142859,4.4642859 0 1 1 -11.4285713,0 5.7142859,4.4642859 0 1 1 11.4285713,0 z"
       transform="matrix(0.74218751,0,0,1,2.8257535,1038.0944)" />
    <path
       sodipodi:type="arc"
       style="fill:#ffffff;fill-opacity:1;fill-rule:nonzero;stroke:none"
       id="path2985-1"
       sodipodi:cx="10.267858"
       sodipodi:cy="7.2142859"
       sodipodi:rx="5.7142859"
       sodipodi:ry="4.4642859"
       d="m 15.982143,7.2142859 a 5.7142859,4.4642859 0 1 1 -11.4285713,0 5.7142859,4.4642859 0 1 1 11.4285713,0 z"
       transform="matrix(0.18750002,0,0,0.25263161,8.4319194,1040.2613)" />
    <path
       sodipodi:type="arc"
       style="fill:#ffffff;fill-opacity:1;fill-rule:nonzero;stroke:none"
       id="path2985-1-7"
       sodipodi:cx="10.267858"
       sodipodi:cy="7.2142859"
       sodipodi:rx="5.7142859"
       sodipodi:ry="4.4642859"
       d="m 15.982143,7.2142859 a 5.7142859,4.4642859 0 1 1 -11.4285713,0 5.7142859,4.4642859 0 1 1 11.4285713,0 z"
       transform="matrix(0.18750002,0,0,0.25263161,5.8426337,1042.1692)" />
    <path
       sodipodi:type="arc"
       style="fill:#ffffff;fill-opacity:1;fill-rule:nonzero;stroke:none"
       id="path2985-1-7-0"
       sodipodi:cx="10.267858"
       sodipodi:cy="7.2142859"
       sodipodi:rx="5.7142859"
       sodipodi:ry="4.4642859"
       d="m 15.982143,7.2142859 a 5.7142859,4.4642859 0 1 1 -11.4285713,0 5.7142859,4.4642859 0 1 1 11.4285713,0 z"
       transform="matrix(0.18750002,0,0,0.25263161,11.199777,1042.1468)" />
    <path
       sodipodi:type="arc"
       style="fill:#ffffff;fill-opacity:1;fill-rule:nonzero;stroke:none"
       id="path2985-1-4"
       sodipodi:cx="10.267858"
       sodipodi:cy="7.2142859"
       sodipodi:rx="5.7142859"
       sodipodi:ry="4.4642859"
       d="m 15.982143,7.2142859 a 5.7142859,4.4642859 0 1 1 -11.4285713,0 5.7142859,4.4642859 0 1 1 11.4285713,0 z"
       transform="matrix(0.18750002,0,0,-0.25263161,8.4319191,1050.5405)" />
    <path
       sodipodi:type="arc"
       style="fill:#ffffff;fill-opacity:1;fill-rule:nonzero;stroke:none"
       id="path2985-1-7-8"
       sodipodi:cx="10.267858"
       sodipodi:cy="7.2142859"
       sodipodi:rx="5.7142859"
       sodipodi:ry="4.4642859"
       d="m 15.982143,7.2142859 a 5.7142859,4.4642859 0 1 1 -11.4285713,0 5.7142859,4.4642859 0 1 1 11.4285713,0 z"
       transform="matrix(0.18750002,0,0,-0.25263161,5.8426334,1048.7219)" />
    <path
       sodipodi:type="arc"
       style="fill:#ffffff;fill-opacity:1;fill-rule:nonzero;stroke:none"
       id="path2985-1-7-0-8"
       sodipodi:cx="10.267858"
       sodipodi:cy="7.2142859"
       sodipodi:rx="5.7142859"
       sodipodi:ry="4.4642859"
       d="m 15.982143,7.2142859 a 5.7142859,4.4642859 0 1 1 -11.4285713,0 5.7142859,4.4642859 0 1 1 11.4285713,0 z"
       transform="matrix(0.18750002,0,0,-0.25263161,11.289063,1048.6774)" />
  </g>
</svg>
